<?xml version="1.0" encoding="UTF-8" standalone="no"?>
<!-- Created with Inkscape (http://www.inkscape.org/) -->

<svg
   version="1.1"
   id="svg2"
   xml:space="preserve"
   width="644"
   height="480"
   viewBox="0 0 644 480"
   sodipodi:docname="figure2b.svg"
   inkscape:version="1.1.2 (b8e25be833, 2022-02-05)"
   xmlns:inkscape="http://www.inkscape.org/namespaces/inkscape"
   xmlns:sodipodi="http://sodipodi.sourceforge.net/DTD/sodipodi-0.dtd"
   xmlns:xlink="http://www.w3.org/1999/xlink"
   xmlns="http://www.w3.org/2000/svg"
   xmlns:svg="http://www.w3.org/2000/svg"><defs
     id="defs6"><clipPath
   clipPathUnits="userSpaceOnUse"
   id="clipPath18"><path
     d="m 590.398,734.398 h 3940.8 v 2275.2 h -3940.8 z"
     id="path16" /></clipPath><clipPath
   clipPathUnits="userSpaceOnUse"
   id="clipPath230"><path
     d="m 590.398,734.398 h 3940.8 v 2275.2 h -3940.8 z"
     id="path228" /></clipPath><clipPath
   clipPathUnits="userSpaceOnUse"
   id="clipPath286"><path
     d="m 590.398,734.398 h 3940.8 v 2275.2 h -3940.8 z"
     id="path284" /></clipPath><clipPath
   clipPathUnits="userSpaceOnUse"
   id="clipPath342"><path
     d="m 590.398,734.398 h 3940.8 v 2275.2 h -3940.8 z"
     id="path340" /></clipPath><g
   id="g371">
      <symbol
   overflow="visible"
   id="symbol9063">
        <path
   style="stroke:none;"
   d=""
   id="path1885" />
      </symbol>
      <symbol
   overflow="visible"
   id="symbol9826">
        <path
   style="stroke:none;"
   d="M 4.75 -2.359375 C 4.75 -3.921875 3.828125 -4.40625 3.09375 -4.40625 C 1.71875 -4.40625 0.40625 -2.984375 0.40625 -1.578125 C 0.40625 -0.640625 1 0.109375 2.03125 0.109375 C 2.65625 0.109375 3.375 -0.125 4.125 -0.734375 C 4.25 -0.203125 4.578125 0.109375 5.03125 0.109375 C 5.5625 0.109375 5.875 -0.4375 5.875 -0.59375 C 5.875 -0.671875 5.8125 -0.703125 5.75 -0.703125 C 5.6875 -0.703125 5.65625 -0.671875 5.625 -0.59375 C 5.4375 -0.109375 5.078125 -0.109375 5.0625 -0.109375 C 4.75 -0.109375 4.75 -0.890625 4.75 -1.125 C 4.75 -1.328125 4.75 -1.359375 4.859375 -1.46875 C 5.796875 -2.65625 6 -3.8125 6 -3.8125 C 6 -3.84375 5.984375 -3.921875 5.875 -3.921875 C 5.78125 -3.921875 5.78125 -3.890625 5.734375 -3.703125 C 5.546875 -3.078125 5.21875 -2.328125 4.75 -1.734375 Z M 4.09375 -0.984375 C 3.203125 -0.21875 2.4375 -0.109375 2.046875 -0.109375 C 1.453125 -0.109375 1.140625 -0.5625 1.140625 -1.203125 C 1.140625 -1.6875 1.40625 -2.765625 1.71875 -3.265625 C 2.1875 -4 2.734375 -4.1875 3.078125 -4.1875 C 4.0625 -4.1875 4.0625 -2.875 4.0625 -2.109375 C 4.0625 -1.734375 4.0625 -1.15625 4.09375 -0.984375 Z M 4.09375 -0.984375 "
   id="path2928" />
      </symbol>
    </g>
  </defs><sodipodi:namedview
     id="namedview4"
     pagecolor="#ffffff"
     bordercolor="#999999"
     borderopacity="1"
     inkscape:pageshadow="0"
     inkscape:pageopacity="0"
     inkscape:pagecheckerboard="0"
     showgrid="false"
     inkscape:zoom="1.4979167"
     inkscape:cx="286.73157"
     inkscape:cy="209.95828"
     inkscape:window-width="2400"
     inkscape:window-height="1261"
     inkscape:window-x="2391"
     inkscape:window-y="-9"
     inkscape:window-maximized="1"
     inkscape:current-layer="layer1" /><g
     id="g8"
     inkscape:groupmode="layer"
     inkscape:label="ink_ext_XXXXXX"
     transform="matrix(1.3333333,0,0,-1.3333333,0,480)"
     sodipodi:insensitive="true"><g
       id="g10"
       transform="scale(0.1)"><g
         id="g12"><g
           id="g14"
           clip-path="url(#clipPath18)"><path
             d="m 3245,1928.8 c 0,14.91 -12.09,27 -27,27 -14.91,0 -27,-12.09 -27,-27 0,-14.91 12.09,-27 27,-27 14.91,0 27,12.09 27,27"
             style="fill:#000000;fill-opacity:1;fill-rule:nonzero;stroke:none"
             id="path20" /><path
             d="m 3245,1928.8 c 0,14.91 -12.09,27 -27,27 -14.91,0 -27,-12.09 -27,-27 0,-14.91 12.09,-27 27,-27 14.91,0 27,12.09 27,27"
             style="fill:none;stroke:#000000;stroke-width:7.5;stroke-linecap:round;stroke-linejoin:round;stroke-miterlimit:10;stroke-dasharray:none;stroke-opacity:1"
             id="path22" /><path
             d="m 3214.6,2042.8 c 0,14.91 -12.09,27 -27,27 -14.91,0 -27,-12.09 -27,-27 0,-14.91 12.09,-27 27,-27 14.91,0 27,12.09 27,27"
             style="fill:#000000;fill-opacity:1;fill-rule:nonzero;stroke:none"
             id="path24" /><path
             d="m 3214.6,2042.8 c 0,14.91 -12.09,27 -27,27 -14.91,0 -27,-12.09 -27,-27 0,-14.91 12.09,-27 27,-27 14.91,0 27,12.09 27,27"
             style="fill:none;stroke:#000000;stroke-width:7.5;stroke-linecap:round;stroke-linejoin:round;stroke-miterlimit:10;stroke-dasharray:none;stroke-opacity:1"
             id="path26" /><path
             d="m 3165.8,2146.3 c 0,14.91 -12.09,27 -27,27 -14.91,0 -27,-12.09 -27,-27 0,-14.91 12.09,-27 27,-27 14.91,0 27,12.09 27,27"
             style="fill:#000000;fill-opacity:1;fill-rule:nonzero;stroke:none"
             id="path28" /><path
             d="m 3165.8,2146.3 c 0,14.91 -12.09,27 -27,27 -14.91,0 -27,-12.09 -27,-27 0,-14.91 12.09,-27 27,-27 14.91,0 27,12.09 27,27"
             style="fill:none;stroke:#000000;stroke-width:7.5;stroke-linecap:round;stroke-linejoin:round;stroke-miterlimit:10;stroke-dasharray:none;stroke-opacity:1"
             id="path30" /><path
             d="m 3043.6,2203.2 c 0,14.91 -12.09,27 -27,27 -14.91,0 -27,-12.09 -27,-27 0,-14.91 12.09,-27 27,-27 14.91,0 27,12.09 27,27"
             style="fill:#000000;fill-opacity:1;fill-rule:nonzero;stroke:none"
             id="path32" /><path
             d="m 3043.6,2203.2 c 0,14.91 -12.09,27 -27,27 -14.91,0 -27,-12.09 -27,-27 0,-14.91 12.09,-27 27,-27 14.91,0 27,12.09 27,27"
             style="fill:none;stroke:#000000;stroke-width:7.5;stroke-linecap:round;stroke-linejoin:round;stroke-miterlimit:10;stroke-dasharray:none;stroke-opacity:1"
             id="path34" /><path
             d="m 2978.1,2272.6 c 0,14.91 -12.09,27 -27,27 -14.91,0 -27,-12.09 -27,-27 0,-14.91 12.09,-27 27,-27 14.91,0 27,12.09 27,27"
             style="fill:#000000;fill-opacity:1;fill-rule:nonzero;stroke:none"
             id="path36" /><path
             d="m 2978.1,2272.6 c 0,14.91 -12.09,27 -27,27 -14.91,0 -27,-12.09 -27,-27 0,-14.91 12.09,-27 27,-27 14.91,0 27,12.09 27,27"
             style="fill:none;stroke:#000000;stroke-width:7.5;stroke-linecap:round;stroke-linejoin:round;stroke-miterlimit:10;stroke-dasharray:none;stroke-opacity:1"
             id="path38" /><path
             d="m 2936.3,2367.3 c 0,14.91 -12.09,27 -27,27 -14.91,0 -27,-12.09 -27,-27 0,-14.91 12.09,-27 27,-27 14.91,0 27,12.09 27,27"
             style="fill:#000000;fill-opacity:1;fill-rule:nonzero;stroke:none"
             id="path40" /><path
             d="m 2936.3,2367.3 c 0,14.91 -12.09,27 -27,27 -14.91,0 -27,-12.09 -27,-27 0,-14.91 12.09,-27 27,-27 14.91,0 27,12.09 27,27"
             style="fill:none;stroke:#000000;stroke-width:7.5;stroke-linecap:round;stroke-linejoin:round;stroke-miterlimit:10;stroke-dasharray:none;stroke-opacity:1"
             id="path42" /><path
             d="m 2843.3,2405 c 0,14.91 -12.09,27 -27,27 -14.91,0 -27,-12.09 -27,-27 0,-14.91 12.09,-27 27,-27 14.91,0 27,12.09 27,27"
             style="fill:#000000;fill-opacity:1;fill-rule:nonzero;stroke:none"
             id="path44" /><path
             d="m 2843.3,2405 c 0,14.91 -12.09,27 -27,27 -14.91,0 -27,-12.09 -27,-27 0,-14.91 12.09,-27 27,-27 14.91,0 27,12.09 27,27"
             style="fill:none;stroke:#000000;stroke-width:7.5;stroke-linecap:round;stroke-linejoin:round;stroke-miterlimit:10;stroke-dasharray:none;stroke-opacity:1"
             id="path46" /><path
             d="m 2767.5,2475.8 c 0,14.91 -12.09,27 -27,27 -14.91,0 -27,-12.09 -27,-27 0,-14.91 12.09,-27 27,-27 14.91,0 27,12.09 27,27"
             style="fill:#000000;fill-opacity:1;fill-rule:nonzero;stroke:none"
             id="path48" /><path
             d="m 2767.5,2475.8 c 0,14.91 -12.09,27 -27,27 -14.91,0 -27,-12.09 -27,-27 0,-14.91 12.09,-27 27,-27 14.91,0 27,12.09 27,27"
             style="fill:none;stroke:#000000;stroke-width:7.5;stroke-linecap:round;stroke-linejoin:round;stroke-miterlimit:10;stroke-dasharray:none;stroke-opacity:1"
             id="path50" /><path
             d="m 2694.8,2645.9 c 0,14.91 -12.09,27 -27,27 -14.91,0 -27,-12.09 -27,-27 0,-14.91 12.09,-27 27,-27 14.91,0 27,12.09 27,27"
             style="fill:#000000;fill-opacity:1;fill-rule:nonzero;stroke:none"
             id="path52" /><path
             d="m 2694.8,2645.9 c 0,14.91 -12.09,27 -27,27 -14.91,0 -27,-12.09 -27,-27 0,-14.91 12.09,-27 27,-27 14.91,0 27,12.09 27,27"
             style="fill:none;stroke:#000000;stroke-width:7.5;stroke-linecap:round;stroke-linejoin:round;stroke-miterlimit:10;stroke-dasharray:none;stroke-opacity:1"
             id="path54" /><path
             d="m 2568.4,2709.6 c 0,14.91 -12.09,27 -27,27 -14.91,0 -27,-12.09 -27,-27 0,-14.91 12.09,-27 27,-27 14.91,0 27,12.09 27,27"
             style="fill:#000000;fill-opacity:1;fill-rule:nonzero;stroke:none"
             id="path56" /><path
             d="m 2568.4,2709.6 c 0,14.91 -12.09,27 -27,27 -14.91,0 -27,-12.09 -27,-27 0,-14.91 12.09,-27 27,-27 14.91,0 27,12.09 27,27"
             style="fill:none;stroke:#000000;stroke-width:7.5;stroke-linecap:round;stroke-linejoin:round;stroke-miterlimit:10;stroke-dasharray:none;stroke-opacity:1"
             id="path58" /><path
             d="m 2417.1,2786.6 c 0,14.91 -12.09,27 -27,27 -14.91,0 -27,-12.09 -27,-27 0,-14.91 12.09,-27 27,-27 14.91,0 27,12.09 27,27"
             style="fill:#000000;fill-opacity:1;fill-rule:nonzero;stroke:none"
             id="path60" /><path
             d="m 2417.1,2786.6 c 0,14.91 -12.09,27 -27,27 -14.91,0 -27,-12.09 -27,-27 0,-14.91 12.09,-27 27,-27 14.91,0 27,12.09 27,27"
             style="fill:none;stroke:#000000;stroke-width:7.5;stroke-linecap:round;stroke-linejoin:round;stroke-miterlimit:10;stroke-dasharray:none;stroke-opacity:1"
             id="path62" /><path
             d="m 2238.5,2835.1 c 0,14.91 -12.09,27 -27,27 -14.91,0 -27,-12.09 -27,-27 0,-14.91 12.09,-27 27,-27 14.91,0 27,12.09 27,27"
             style="fill:#000000;fill-opacity:1;fill-rule:nonzero;stroke:none"
             id="path64" /><path
             d="m 2238.5,2835.1 c 0,14.91 -12.09,27 -27,27 -14.91,0 -27,-12.09 -27,-27 0,-14.91 12.09,-27 27,-27 14.91,0 27,12.09 27,27"
             style="fill:none;stroke:#000000;stroke-width:7.5;stroke-linecap:round;stroke-linejoin:round;stroke-miterlimit:10;stroke-dasharray:none;stroke-opacity:1"
             id="path66" /><path
             d="m 2077,2779.9 c 0,14.91 -12.09,27 -27,27 -14.91,0 -27,-12.09 -27,-27 0,-14.91 12.09,-27 27,-27 14.91,0 27,12.09 27,27"
             style="fill:#000000;fill-opacity:1;fill-rule:nonzero;stroke:none"
             id="path68" /><path
             d="m 2077,2779.9 c 0,14.91 -12.09,27 -27,27 -14.91,0 -27,-12.09 -27,-27 0,-14.91 12.09,-27 27,-27 14.91,0 27,12.09 27,27"
             style="fill:none;stroke:#000000;stroke-width:7.5;stroke-linecap:round;stroke-linejoin:round;stroke-miterlimit:10;stroke-dasharray:none;stroke-opacity:1"
             id="path70" /><path
             d="m 1958.8,2655.3 c 0,14.91 -12.09,27 -27,27 -14.91,0 -27,-12.09 -27,-27 0,-14.91 12.09,-27 27,-27 14.91,0 27,12.09 27,27"
             style="fill:#000000;fill-opacity:1;fill-rule:nonzero;stroke:none"
             id="path72" /><path
             d="m 1958.8,2655.3 c 0,14.91 -12.09,27 -27,27 -14.91,0 -27,-12.09 -27,-27 0,-14.91 12.09,-27 27,-27 14.91,0 27,12.09 27,27"
             style="fill:none;stroke:#000000;stroke-width:7.5;stroke-linecap:round;stroke-linejoin:round;stroke-miterlimit:10;stroke-dasharray:none;stroke-opacity:1"
             id="path74" /><path
             d="m 1906.9,2483.9 c 0,14.91 -12.09,27 -27,27 -14.91,0 -27,-12.09 -27,-27 0,-14.91 12.09,-27 27,-27 14.91,0 27,12.09 27,27"
             style="fill:#000000;fill-opacity:1;fill-rule:nonzero;stroke:none"
             id="path76" /><path
             d="m 1906.9,2483.9 c 0,14.91 -12.09,27 -27,27 -14.91,0 -27,-12.09 -27,-27 0,-14.91 12.09,-27 27,-27 14.91,0 27,12.09 27,27"
             style="fill:none;stroke:#000000;stroke-width:7.5;stroke-linecap:round;stroke-linejoin:round;stroke-miterlimit:10;stroke-dasharray:none;stroke-opacity:1"
             id="path78" /><path
             d="m 1929.4,2297.7 c 0,14.91 -12.09,27 -27,27 -14.91,0 -27,-12.09 -27,-27 0,-14.91 12.09,-27 27,-27 14.91,0 27,12.09 27,27"
             style="fill:#000000;fill-opacity:1;fill-rule:nonzero;stroke:none"
             id="path80" /><path
             d="m 1929.4,2297.7 c 0,14.91 -12.09,27 -27,27 -14.91,0 -27,-12.09 -27,-27 0,-14.91 12.09,-27 27,-27 14.91,0 27,12.09 27,27"
             style="fill:none;stroke:#000000;stroke-width:7.5;stroke-linecap:round;stroke-linejoin:round;stroke-miterlimit:10;stroke-dasharray:none;stroke-opacity:1"
             id="path82" /><path
             d="m 1969.9,2146.7 c 0,14.91 -12.09,27 -27,27 -14.91,0 -27,-12.09 -27,-27 0,-14.91 12.09,-27 27,-27 14.91,0 27,12.09 27,27"
             style="fill:#000000;fill-opacity:1;fill-rule:nonzero;stroke:none"
             id="path84" /><path
             d="m 1969.9,2146.7 c 0,14.91 -12.09,27 -27,27 -14.91,0 -27,-12.09 -27,-27 0,-14.91 12.09,-27 27,-27 14.91,0 27,12.09 27,27"
             style="fill:none;stroke:#000000;stroke-width:7.5;stroke-linecap:round;stroke-linejoin:round;stroke-miterlimit:10;stroke-dasharray:none;stroke-opacity:1"
             id="path86" /><path
             d="m 1909.4,2045 c 0,14.91 -12.09,27 -27,27 -14.91,0 -27,-12.09 -27,-27 0,-14.91 12.09,-27 27,-27 14.91,0 27,12.09 27,27"
             style="fill:#000000;fill-opacity:1;fill-rule:nonzero;stroke:none"
             id="path88" /><path
             d="m 1909.4,2045 c 0,14.91 -12.09,27 -27,27 -14.91,0 -27,-12.09 -27,-27 0,-14.91 12.09,-27 27,-27 14.91,0 27,12.09 27,27"
             style="fill:none;stroke:#000000;stroke-width:7.5;stroke-linecap:round;stroke-linejoin:round;stroke-miterlimit:10;stroke-dasharray:none;stroke-opacity:1"
             id="path90" /><path
             d="m 1841.3,1928.8 c 0,14.91 -12.09,27 -27,27 -14.91,0 -27,-12.09 -27,-27 0,-14.91 12.09,-27 27,-27 14.91,0 27,12.09 27,27"
             style="fill:#000000;fill-opacity:1;fill-rule:nonzero;stroke:none"
             id="path92" /><path
             d="m 1841.3,1928.8 c 0,14.91 -12.09,27 -27,27 -14.91,0 -27,-12.09 -27,-27 0,-14.91 12.09,-27 27,-27 14.91,0 27,12.09 27,27"
             style="fill:none;stroke:#000000;stroke-width:7.5;stroke-linecap:round;stroke-linejoin:round;stroke-miterlimit:10;stroke-dasharray:none;stroke-opacity:1"
             id="path94" /><path
             d="m 1868.2,1805.4 c 0,14.91 -12.09,27 -27,27 -14.91,0 -27,-12.09 -27,-27 0,-14.91 12.09,-27 27,-27 14.91,0 27,12.09 27,27"
             style="fill:#000000;fill-opacity:1;fill-rule:nonzero;stroke:none"
             id="path96" /><path
             d="m 1868.2,1805.4 c 0,14.91 -12.09,27 -27,27 -14.91,0 -27,-12.09 -27,-27 0,-14.91 12.09,-27 27,-27 14.91,0 27,12.09 27,27"
             style="fill:none;stroke:#000000;stroke-width:7.5;stroke-linecap:round;stroke-linejoin:round;stroke-miterlimit:10;stroke-dasharray:none;stroke-opacity:1"
             id="path98" /><path
             d="m 1988.1,1717.6 c 0,14.91 -12.09,27 -27,27 -14.91,0 -27,-12.09 -27,-27 0,-14.91 12.09,-27 27,-27 14.91,0 27,12.09 27,27"
             style="fill:#000000;fill-opacity:1;fill-rule:nonzero;stroke:none"
             id="path100" /><path
             d="m 1988.1,1717.6 c 0,14.91 -12.09,27 -27,27 -14.91,0 -27,-12.09 -27,-27 0,-14.91 12.09,-27 27,-27 14.91,0 27,12.09 27,27"
             style="fill:none;stroke:#000000;stroke-width:7.5;stroke-linecap:round;stroke-linejoin:round;stroke-miterlimit:10;stroke-dasharray:none;stroke-opacity:1"
             id="path102" /><path
             d="m 2060.5,1635.6 c 0,14.91 -12.09,27 -27,27 -14.91,0 -27,-12.09 -27,-27 0,-14.91 12.09,-27 27,-27 14.91,0 27,12.09 27,27"
             style="fill:#000000;fill-opacity:1;fill-rule:nonzero;stroke:none"
             id="path104" /><path
             d="m 2060.5,1635.6 c 0,14.91 -12.09,27 -27,27 -14.91,0 -27,-12.09 -27,-27 0,-14.91 12.09,-27 27,-27 14.91,0 27,12.09 27,27"
             style="fill:none;stroke:#000000;stroke-width:7.5;stroke-linecap:round;stroke-linejoin:round;stroke-miterlimit:10;stroke-dasharray:none;stroke-opacity:1"
             id="path106" /><path
             d="m 2101.1,1536.7 c 0,14.91 -12.09,27 -27,27 -14.91,0 -27,-12.09 -27,-27 0,-14.91 12.09,-27 27,-27 14.91,0 27,12.09 27,27"
             style="fill:#000000;fill-opacity:1;fill-rule:nonzero;stroke:none"
             id="path108" /><path
             d="m 2101.1,1536.7 c 0,14.91 -12.09,27 -27,27 -14.91,0 -27,-12.09 -27,-27 0,-14.91 12.09,-27 27,-27 14.91,0 27,12.09 27,27"
             style="fill:none;stroke:#000000;stroke-width:7.5;stroke-linecap:round;stroke-linejoin:round;stroke-miterlimit:10;stroke-dasharray:none;stroke-opacity:1"
             id="path110" /><path
             d="m 2189.4,1477.2 c 0,14.91 -12.09,27 -27,27 -14.91,0 -27,-12.09 -27,-27 0,-14.91 12.09,-27 27,-27 14.91,0 27,12.09 27,27"
             style="fill:#000000;fill-opacity:1;fill-rule:nonzero;stroke:none"
             id="path112" /><path
             d="m 2189.4,1477.2 c 0,14.91 -12.09,27 -27,27 -14.91,0 -27,-12.09 -27,-27 0,-14.91 12.09,-27 27,-27 14.91,0 27,12.09 27,27"
             style="fill:none;stroke:#000000;stroke-width:7.5;stroke-linecap:round;stroke-linejoin:round;stroke-miterlimit:10;stroke-dasharray:none;stroke-opacity:1"
             id="path114" /><path
             d="m 2255.3,1386.6 c 0,14.91 -12.09,27 -27,27 -14.91,0 -27,-12.09 -27,-27 0,-14.91 12.09,-27 27,-27 14.91,0 27,12.09 27,27"
             style="fill:#000000;fill-opacity:1;fill-rule:nonzero;stroke:none"
             id="path116" /><path
             d="m 2255.3,1386.6 c 0,14.91 -12.09,27 -27,27 -14.91,0 -27,-12.09 -27,-27 0,-14.91 12.09,-27 27,-27 14.91,0 27,12.09 27,27"
             style="fill:none;stroke:#000000;stroke-width:7.5;stroke-linecap:round;stroke-linejoin:round;stroke-miterlimit:10;stroke-dasharray:none;stroke-opacity:1"
             id="path118" /><path
             d="m 2333.6,1284 c 0,14.91 -12.09,27 -27,27 -14.91,0 -27,-12.09 -27,-27 0,-14.91 12.09,-27 27,-27 14.91,0 27,12.09 27,27"
             style="fill:#000000;fill-opacity:1;fill-rule:nonzero;stroke:none"
             id="path120" /><path
             d="m 2333.6,1284 c 0,14.91 -12.09,27 -27,27 -14.91,0 -27,-12.09 -27,-27 0,-14.91 12.09,-27 27,-27 14.91,0 27,12.09 27,27"
             style="fill:none;stroke:#000000;stroke-width:7.5;stroke-linecap:round;stroke-linejoin:round;stroke-miterlimit:10;stroke-dasharray:none;stroke-opacity:1"
             id="path122" /><path
             d="m 2450.9,1262.5 c 0,14.91 -12.09,27 -27,27 -14.91,0 -27,-12.09 -27,-27 0,-14.91 12.09,-27 27,-27 14.91,0 27,12.09 27,27"
             style="fill:#000000;fill-opacity:1;fill-rule:nonzero;stroke:none"
             id="path124" /><path
             d="m 2450.9,1262.5 c 0,14.91 -12.09,27 -27,27 -14.91,0 -27,-12.09 -27,-27 0,-14.91 12.09,-27 27,-27 14.91,0 27,12.09 27,27"
             style="fill:none;stroke:#000000;stroke-width:7.5;stroke-linecap:round;stroke-linejoin:round;stroke-miterlimit:10;stroke-dasharray:none;stroke-opacity:1"
             id="path126" /><path
             d="m 2568.4,1108.3 c 0,14.91 -12.09,27 -27,27 -14.91,0 -27,-12.09 -27,-27 0,-14.91 12.09,-27 27,-27 14.91,0 27,12.09 27,27"
             style="fill:#000000;fill-opacity:1;fill-rule:nonzero;stroke:none"
             id="path128" /><path
             d="m 2568.4,1108.3 c 0,14.91 -12.09,27 -27,27 -14.91,0 -27,-12.09 -27,-27 0,-14.91 12.09,-27 27,-27 14.91,0 27,12.09 27,27"
             style="fill:none;stroke:#000000;stroke-width:7.5;stroke-linecap:round;stroke-linejoin:round;stroke-miterlimit:10;stroke-dasharray:none;stroke-opacity:1"
             id="path130" /><path
             d="m 2746.3,919.801 c 0,14.91 -12.09,27 -27,27 -14.91,0 -27,-12.09 -27,-27 0,-14.91 12.09,-27 27,-27 14.91,0 27,12.09 27,27"
             style="fill:#000000;fill-opacity:1;fill-rule:nonzero;stroke:none"
             id="path132" /><path
             d="m 2746.3,919.801 c 0,14.91 -12.09,27 -27,27 -14.91,0 -27,-12.09 -27,-27 0,-14.91 12.09,-27 27,-27 14.91,0 27,12.09 27,27"
             style="fill:none;stroke:#000000;stroke-width:7.5;stroke-linecap:round;stroke-linejoin:round;stroke-miterlimit:10;stroke-dasharray:none;stroke-opacity:1"
             id="path134" /><path
             d="m 2965.4,837.898 c 0,14.911 -12.09,27 -27,27 -14.91,0 -27,-12.089 -27,-27 0,-14.91 12.09,-27 27,-27 14.91,0 27,12.09 27,27"
             style="fill:#000000;fill-opacity:1;fill-rule:nonzero;stroke:none"
             id="path136" /><path
             d="m 2965.4,837.898 c 0,14.911 -12.09,27 -27,27 -14.91,0 -27,-12.089 -27,-27 0,-14.91 12.09,-27 27,-27 14.91,0 27,12.09 27,27"
             style="fill:none;stroke:#000000;stroke-width:7.5;stroke-linecap:round;stroke-linejoin:round;stroke-miterlimit:10;stroke-dasharray:none;stroke-opacity:1"
             id="path138" /><path
             d="m 3129,957.801 c 0,14.91 -12.09,27 -27,27 -14.91,0 -27,-12.09 -27,-27 0,-14.91 12.09,-27 27,-27 14.91,0 27,12.09 27,27"
             style="fill:#000000;fill-opacity:1;fill-rule:nonzero;stroke:none"
             id="path140" /><path
             d="m 3129,957.801 c 0,14.91 -12.09,27 -27,27 -14.91,0 -27,-12.09 -27,-27 0,-14.91 12.09,-27 27,-27 14.91,0 27,12.09 27,27"
             style="fill:none;stroke:#000000;stroke-width:7.5;stroke-linecap:round;stroke-linejoin:round;stroke-miterlimit:10;stroke-dasharray:none;stroke-opacity:1"
             id="path142" /><path
             d="m 3164.8,1218 c 0,14.91 -12.09,27 -27,27 -14.91,0 -27,-12.09 -27,-27 0,-14.91 12.09,-27 27,-27 14.91,0 27,12.09 27,27"
             style="fill:#000000;fill-opacity:1;fill-rule:nonzero;stroke:none"
             id="path144" /><path
             d="m 3164.8,1218 c 0,14.91 -12.09,27 -27,27 -14.91,0 -27,-12.09 -27,-27 0,-14.91 12.09,-27 27,-27 14.91,0 27,12.09 27,27"
             style="fill:none;stroke:#000000;stroke-width:7.5;stroke-linecap:round;stroke-linejoin:round;stroke-miterlimit:10;stroke-dasharray:none;stroke-opacity:1"
             id="path146" /><path
             d="m 3212.5,1388.3 c 0,14.91 -12.09,27 -27,27 -14.91,0 -27,-12.09 -27,-27 0,-14.91 12.09,-27 27,-27 14.91,0 27,12.09 27,27"
             style="fill:#000000;fill-opacity:1;fill-rule:nonzero;stroke:none"
             id="path148" /><path
             d="m 3212.5,1388.3 c 0,14.91 -12.09,27 -27,27 -14.91,0 -27,-12.09 -27,-27 0,-14.91 12.09,-27 27,-27 14.91,0 27,12.09 27,27"
             style="fill:none;stroke:#000000;stroke-width:7.5;stroke-linecap:round;stroke-linejoin:round;stroke-miterlimit:10;stroke-dasharray:none;stroke-opacity:1"
             id="path150" /><path
             d="m 3254.8,1532.5 c 0,14.91 -12.09,27 -27,27 -14.91,0 -27,-12.09 -27,-27 0,-14.91 12.09,-27 27,-27 14.91,0 27,12.09 27,27"
             style="fill:#000000;fill-opacity:1;fill-rule:nonzero;stroke:none"
             id="path152" /><path
             d="m 3254.8,1532.5 c 0,14.91 -12.09,27 -27,27 -14.91,0 -27,-12.09 -27,-27 0,-14.91 12.09,-27 27,-27 14.91,0 27,12.09 27,27"
             style="fill:none;stroke:#000000;stroke-width:7.5;stroke-linecap:round;stroke-linejoin:round;stroke-miterlimit:10;stroke-dasharray:none;stroke-opacity:1"
             id="path154" /><path
             d="m 3325.3,1653.3 c 0,14.91 -12.09,27 -27,27 -14.91,0 -27,-12.09 -27,-27 0,-14.91 12.09,-27 27,-27 14.91,0 27,12.09 27,27"
             style="fill:#000000;fill-opacity:1;fill-rule:nonzero;stroke:none"
             id="path156" /><path
             d="m 3325.3,1653.3 c 0,14.91 -12.09,27 -27,27 -14.91,0 -27,-12.09 -27,-27 0,-14.91 12.09,-27 27,-27 14.91,0 27,12.09 27,27"
             style="fill:none;stroke:#000000;stroke-width:7.5;stroke-linecap:round;stroke-linejoin:round;stroke-miterlimit:10;stroke-dasharray:none;stroke-opacity:1"
             id="path158" /><path
             d="m 3293.9,1800.9 c 0,14.91 -12.09,27 -27,27 -14.91,0 -27,-12.09 -27,-27 0,-14.91 12.09,-27 27,-27 14.91,0 27,12.09 27,27"
             style="fill:#000000;fill-opacity:1;fill-rule:nonzero;stroke:none"
             id="path160" /><path
             d="m 3293.9,1800.9 c 0,14.91 -12.09,27 -27,27 -14.91,0 -27,-12.09 -27,-27 0,-14.91 12.09,-27 27,-27 14.91,0 27,12.09 27,27"
             style="fill:none;stroke:#000000;stroke-width:7.5;stroke-linecap:round;stroke-linejoin:round;stroke-miterlimit:10;stroke-dasharray:none;stroke-opacity:1"
             id="path162" /></g></g><path
         d="M 608.199,734.398 H 4474.5"
         style="fill:none;stroke:#000000;stroke-width:7.5;stroke-linecap:round;stroke-linejoin:round;stroke-miterlimit:10;stroke-dasharray:none;stroke-opacity:1"
         id="path164" /><path
         d="m 608.199,734.398 v -72"
         style="fill:none;stroke:#000000;stroke-width:7.5;stroke-linecap:round;stroke-linejoin:round;stroke-miterlimit:10;stroke-dasharray:none;stroke-opacity:1"
         id="path166" /><path
         d="m 1252.6,734.398 v -72"
         style="fill:none;stroke:#000000;stroke-width:7.5;stroke-linecap:round;stroke-linejoin:round;stroke-miterlimit:10;stroke-dasharray:none;stroke-opacity:1"
         id="path168" /><path
         d="m 1897,734.398 v -72"
         style="fill:none;stroke:#000000;stroke-width:7.5;stroke-linecap:round;stroke-linejoin:round;stroke-miterlimit:10;stroke-dasharray:none;stroke-opacity:1"
         id="path170" /><path
         d="m 2541.4,734.398 v -72"
         style="fill:none;stroke:#000000;stroke-width:7.5;stroke-linecap:round;stroke-linejoin:round;stroke-miterlimit:10;stroke-dasharray:none;stroke-opacity:1"
         id="path172" /><path
         d="m 3185.7,734.398 v -72"
         style="fill:none;stroke:#000000;stroke-width:7.5;stroke-linecap:round;stroke-linejoin:round;stroke-miterlimit:10;stroke-dasharray:none;stroke-opacity:1"
         id="path174" /><path
         d="m 3830.1,734.398 v -72"
         style="fill:none;stroke:#000000;stroke-width:7.5;stroke-linecap:round;stroke-linejoin:round;stroke-miterlimit:10;stroke-dasharray:none;stroke-opacity:1"
         id="path176" /><path
         d="m 4474.5,734.398 v -72"
         style="fill:none;stroke:#000000;stroke-width:7.5;stroke-linecap:round;stroke-linejoin:round;stroke-miterlimit:10;stroke-dasharray:none;stroke-opacity:1"
         id="path178" /><g
         id="g180"
         transform="scale(10)"><text
           transform="matrix(1,0,0,-1,47.3082,47.5199)"
           style="font-variant:normal;font-weight:normal;font-size:12px;font-family:Helvetica;-inkscape-font-specification:Helvetica;writing-mode:lr-tb;fill:#000000;fill-opacity:1;fill-rule:nonzero;stroke:none"
           id="text184"><tspan
             x="0 7.0079999 13.68 20.351999 64.440239 71.448242 78.120239 84.792236 128.88013 135.88812 142.56012 149.23212 203.49576 261.25391 267.92593 274.59793 325.69415 332.36615 339.03815 390.13403 396.80603 403.47803"
             y="0"
             sodipodi:role="line"
             id="tspan182">−600−400−2000200400600</tspan></text></g><path
         d="M 590.398,962.301 V 2895.4"
         style="fill:none;stroke:#000000;stroke-width:7.5;stroke-linecap:round;stroke-linejoin:round;stroke-miterlimit:10;stroke-dasharray:none;stroke-opacity:1"
         id="path186" /><path
         d="m 590.398,962.301 h -72"
         style="fill:none;stroke:#000000;stroke-width:7.5;stroke-linecap:round;stroke-linejoin:round;stroke-miterlimit:10;stroke-dasharray:none;stroke-opacity:1"
         id="path188" /><path
         d="m 590.398,1284.5 h -72"
         style="fill:none;stroke:#000000;stroke-width:7.5;stroke-linecap:round;stroke-linejoin:round;stroke-miterlimit:10;stroke-dasharray:none;stroke-opacity:1"
         id="path190" /><path
         d="m 590.398,1606.6 h -72"
         style="fill:none;stroke:#000000;stroke-width:7.5;stroke-linecap:round;stroke-linejoin:round;stroke-miterlimit:10;stroke-dasharray:none;stroke-opacity:1"
         id="path192" /><path
         d="m 590.398,1928.8 h -72"
         style="fill:none;stroke:#000000;stroke-width:7.5;stroke-linecap:round;stroke-linejoin:round;stroke-miterlimit:10;stroke-dasharray:none;stroke-opacity:1"
         id="path194" /><path
         d="m 590.398,2251 h -72"
         style="fill:none;stroke:#000000;stroke-width:7.5;stroke-linecap:round;stroke-linejoin:round;stroke-miterlimit:10;stroke-dasharray:none;stroke-opacity:1"
         id="path196" /><path
         d="m 590.398,2573.2 h -72"
         style="fill:none;stroke:#000000;stroke-width:7.5;stroke-linecap:round;stroke-linejoin:round;stroke-miterlimit:10;stroke-dasharray:none;stroke-opacity:1"
         id="path198" /><path
         d="m 590.398,2895.4 h -72"
         style="fill:none;stroke:#000000;stroke-width:7.5;stroke-linecap:round;stroke-linejoin:round;stroke-miterlimit:10;stroke-dasharray:none;stroke-opacity:1"
         id="path200" /><g
         id="g202"
         transform="scale(10)"><text
           transform="matrix(0,1,1,0,41.7602,82.7184)"
           style="font-variant:normal;font-weight:normal;font-size:12px;font-family:Helvetica;-inkscape-font-specification:Helvetica;writing-mode:lr-tb;fill:#000000;fill-opacity:1;fill-rule:nonzero;stroke:none"
           id="text206"><tspan
             x="0 7.0079999 13.68 20.351999 64.430038 71.438042 78.110039 84.782043 106.8258 132.37379 139.04581 145.7178 164.59367 171.26569 177.93768 196.81355 203.48557 210.15756"
             y="0"
             sodipodi:role="line"
             id="tspan204">−300−1000100200300</tspan></text></g><path
         d="M 590.398,734.398 H 4531.2 V 3009.6 H 590.398 V 734.398"
         style="fill:none;stroke:#000000;stroke-width:7.5;stroke-linecap:round;stroke-linejoin:round;stroke-miterlimit:10;stroke-dasharray:none;stroke-opacity:1"
         id="path208" /><g
         id="g210"
         transform="scale(10)"><text
           transform="matrix(1,0,0,-1,136.25,325.45)"
           style="font-variant:normal;font-weight:bold;font-size:14px;font-family:Helvetica;-inkscape-font-specification:Helvetica-Bold;writing-mode:lr-tb;fill:#000000;fill-opacity:1;fill-rule:nonzero;stroke:none"
           id="text214"><tspan
             x="0 9.3380003 17.892 26.445999 30.337999 38.122002 45.905998 50.568001 54.459999 62.243999 70.028 73.919998 77.811996 87.919998 96.614059 104.39806 108.29006 116.46606 120.35806 128.14206 135.92606 139.81807 143.71007 154.60207 162.38606 170.94006 179.49406 187.27806 192.72406 196.61606 204.79207 208.68407 220.34607 228.13007 232.02206"
             y="0"
             sodipodi:role="line"
             id="tspan212">Subject 29, Age = 26, Gender = Male</tspan></text><text
           transform="matrix(1,0,0,-1,205.4102,18.72)"
           style="font-variant:normal;font-weight:normal;font-size:12px;font-family:Helvetica;-inkscape-font-specification:Helvetica;writing-mode:lr-tb;fill:#000000;fill-opacity:1;fill-rule:nonzero;stroke:none"
           id="text218"><tspan
             x="0 6 9.3360004 15.336 22.007999 28.68 32.675999 39.348 42.012001 48.683998 55.355999 58.692001 65.363998 68.699997 72.695999 81.360001 89.664062 96.996063"
             y="0"
             sodipodi:role="line"
             id="tspan216">x coordinate (RRT)</tspan></text><text
           transform="matrix(0,1,1,0,12.9602,136.52)"
           style="font-variant:normal;font-weight:normal;font-size:12px;font-family:Helvetica;-inkscape-font-specification:Helvetica;writing-mode:lr-tb;fill:#000000;fill-opacity:1;fill-rule:nonzero;stroke:none"
           id="text222"><tspan
             x="0 6 9.3360004 15.336 22.007999 28.68 32.675999 39.348 42.012001 48.683998 55.355999 58.692001 65.363998 68.699997 72.695999 81.360001 89.664062 96.996063"
             y="0"
             sodipodi:role="line"
             id="tspan220">y coordinate (RRT)</tspan></text></g><g
         id="g224"><g
           id="g226"
           clip-path="url(#clipPath230)"><path
             d="m 2038.1,2728.2 -30.7,-21.1 -28.4,-24.4 -26.1,-27.7 -23.6,-30.9 -21.1,-33.8 -18.4,-36.8 -15.8,-39.5 -12.9,-42.1 -10.2,-44.6 -7.3,-46.7 -4.4,-48.8 -1.6,-50.7 1.4,-52.3 4.4,-53.7 7.1,-55 10.1,-55.9 12.9,-56.8 15.6,-57.2 18.4,-57.6 20.9,-57.7 23.6,-57.5 25.9,-57.2 28.4,-56.5 30.5,-55.7 32.7,-54.6 34.6,-53.4 36.5,-51.8 38.2,-50.2 39.7,-48.2 41.1,-46.2 42.3,-43.8 43.3,-41.4 44.2,-38.7 44.9,-36 45.5,-33 45.7,-30 45.9,-26.7 45.8,-23.5 45.6,-20.1 45.2,-16.599 44.7,-13.102 43.8,-9.5 42.9,-5.898 41.7,-2.199 40.5,1.398 39,5.102 37.5,8.699 35.6,12.398 33.8,15.801 31.7,19.4 29.5,22.8 27.3,26.1 24.8,29.3 22.4,32.3 19.8,35.4 17.1,38.1 14.3,40.9 11.6,43.3 8.8,45.7 5.8,47.8 3,49.7 0.1,51.5 -2.9,53.1 -5.7,54.4 -8.7,55.4 -11.4,56.4 -14.3,57.1 -17,57.4 -19.7,57.7 -22.2,57.6 -24.8,57.4 -27.2,56.8 -29.4,56.2 -31.6,55.2 -33.7,54 -35.6,52.6 -37.3,51 -39,49.3 -40.4,47.2 -41.7,45 -42.9,42.6 -43.8,40.1 -44.6,37.4 -45.2,34.5 -45.6,31.5 -45.8,28.4 -45.9,25.1 -45.7,21.8 -45.5,18.4 -44.9,14.8 -44.2,11.3 -43.4,7.7 -42.4,4.1 -41.1,0.4 -39.8,-3.3 -38.2,-6.9 -36.6,-10.6 -34.7,-14.1 -32.7,-17.6"
             style="fill:none;stroke:#000000;stroke-width:15;stroke-linecap:round;stroke-linejoin:round;stroke-miterlimit:10;stroke-dasharray:none;stroke-opacity:1"
             id="path232" /></g></g><path
         d="M 608.199,734.398 H 4474.5"
         style="fill:none;stroke:#000000;stroke-width:7.5;stroke-linecap:round;stroke-linejoin:round;stroke-miterlimit:10;stroke-dasharray:none;stroke-opacity:1"
         id="path234" /><path
         d="m 608.199,734.398 v -72"
         style="fill:none;stroke:#000000;stroke-width:7.5;stroke-linecap:round;stroke-linejoin:round;stroke-miterlimit:10;stroke-dasharray:none;stroke-opacity:1"
         id="path236" /><path
         d="m 1252.6,734.398 v -72"
         style="fill:none;stroke:#000000;stroke-width:7.5;stroke-linecap:round;stroke-linejoin:round;stroke-miterlimit:10;stroke-dasharray:none;stroke-opacity:1"
         id="path238" /><path
         d="m 1897,734.398 v -72"
         style="fill:none;stroke:#000000;stroke-width:7.5;stroke-linecap:round;stroke-linejoin:round;stroke-miterlimit:10;stroke-dasharray:none;stroke-opacity:1"
         id="path240" /><path
         d="m 2541.4,734.398 v -72"
         style="fill:none;stroke:#000000;stroke-width:7.5;stroke-linecap:round;stroke-linejoin:round;stroke-miterlimit:10;stroke-dasharray:none;stroke-opacity:1"
         id="path242" /><path
         d="m 3185.7,734.398 v -72"
         style="fill:none;stroke:#000000;stroke-width:7.5;stroke-linecap:round;stroke-linejoin:round;stroke-miterlimit:10;stroke-dasharray:none;stroke-opacity:1"
         id="path244" /><path
         d="m 3830.1,734.398 v -72"
         style="fill:none;stroke:#000000;stroke-width:7.5;stroke-linecap:round;stroke-linejoin:round;stroke-miterlimit:10;stroke-dasharray:none;stroke-opacity:1"
         id="path246" /><path
         d="m 4474.5,734.398 v -72"
         style="fill:none;stroke:#000000;stroke-width:7.5;stroke-linecap:round;stroke-linejoin:round;stroke-miterlimit:10;stroke-dasharray:none;stroke-opacity:1"
         id="path248" /><g
         id="g250"
         transform="scale(10)"><text
           transform="matrix(1,0,0,-1,47.3082,47.5199)"
           style="font-variant:normal;font-weight:normal;font-size:12px;font-family:Helvetica;-inkscape-font-specification:Helvetica;writing-mode:lr-tb;fill:#000000;fill-opacity:1;fill-rule:nonzero;stroke:none"
           id="text254"><tspan
             x="0 7.0079999 13.68 20.351999 64.440239 71.448242 78.120239 84.792236 128.88013 135.88812 142.56012 149.23212 203.49576 261.25391 267.92593 274.59793 325.69415 332.36615 339.03815 390.13403 396.80603 403.47803"
             y="0"
             sodipodi:role="line"
             id="tspan252">−600−400−2000200400600</tspan></text></g><path
         d="M 590.398,962.301 V 2895.4"
         style="fill:none;stroke:#000000;stroke-width:7.5;stroke-linecap:round;stroke-linejoin:round;stroke-miterlimit:10;stroke-dasharray:none;stroke-opacity:1"
         id="path256" /><path
         d="m 590.398,962.301 h -72"
         style="fill:none;stroke:#000000;stroke-width:7.5;stroke-linecap:round;stroke-linejoin:round;stroke-miterlimit:10;stroke-dasharray:none;stroke-opacity:1"
         id="path258" /><path
         d="m 590.398,1284.5 h -72"
         style="fill:none;stroke:#000000;stroke-width:7.5;stroke-linecap:round;stroke-linejoin:round;stroke-miterlimit:10;stroke-dasharray:none;stroke-opacity:1"
         id="path260" /><path
         d="m 590.398,1606.6 h -72"
         style="fill:none;stroke:#000000;stroke-width:7.5;stroke-linecap:round;stroke-linejoin:round;stroke-miterlimit:10;stroke-dasharray:none;stroke-opacity:1"
         id="path262" /><path
         d="m 590.398,1928.8 h -72"
         style="fill:none;stroke:#000000;stroke-width:7.5;stroke-linecap:round;stroke-linejoin:round;stroke-miterlimit:10;stroke-dasharray:none;stroke-opacity:1"
         id="path264" /><path
         d="m 590.398,2251 h -72"
         style="fill:none;stroke:#000000;stroke-width:7.5;stroke-linecap:round;stroke-linejoin:round;stroke-miterlimit:10;stroke-dasharray:none;stroke-opacity:1"
         id="path266" /><path
         d="m 590.398,2573.2 h -72"
         style="fill:none;stroke:#000000;stroke-width:7.5;stroke-linecap:round;stroke-linejoin:round;stroke-miterlimit:10;stroke-dasharray:none;stroke-opacity:1"
         id="path268" /><path
         d="m 590.398,2895.4 h -72"
         style="fill:none;stroke:#000000;stroke-width:7.5;stroke-linecap:round;stroke-linejoin:round;stroke-miterlimit:10;stroke-dasharray:none;stroke-opacity:1"
         id="path270" /><g
         id="g272"
         transform="scale(10)"><text
           transform="matrix(0,1,1,0,41.7602,82.7184)"
           style="font-variant:normal;font-weight:normal;font-size:12px;font-family:Helvetica;-inkscape-font-specification:Helvetica;writing-mode:lr-tb;fill:#000000;fill-opacity:1;fill-rule:nonzero;stroke:none"
           id="text276"><tspan
             x="0 7.0079999 13.68 20.351999 64.430038 71.438042 78.110039 84.782043 106.8258 132.37379 139.04581 145.7178 164.59367 171.26569 177.93768 196.81355 203.48557 210.15756"
             y="0"
             sodipodi:role="line"
             id="tspan274">−300−1000100200300</tspan></text></g><path
         d="M 590.398,734.398 H 4531.2 V 3009.6 H 590.398 V 734.398"
         style="fill:none;stroke:#000000;stroke-width:7.5;stroke-linecap:round;stroke-linejoin:round;stroke-miterlimit:10;stroke-dasharray:none;stroke-opacity:1"
         id="path278" /><g
         id="g280"><g
           id="g282"
           clip-path="url(#clipPath286)"><path
             d="m 2587.8,1872 c 0,14.91 -12.09,27 -27,27 -14.91,0 -27,-12.09 -27,-27 0,-14.91 12.09,-27 27,-27 14.91,0 27,12.09 27,27"
             style="fill:#000000;fill-opacity:1;fill-rule:nonzero;stroke:none"
             id="path288" /></g></g><path
         d="M 608.199,734.398 H 4474.5"
         style="fill:none;stroke:#000000;stroke-width:7.5;stroke-linecap:round;stroke-linejoin:round;stroke-miterlimit:10;stroke-dasharray:none;stroke-opacity:1"
         id="path290" /><path
         d="m 608.199,734.398 v -72"
         style="fill:none;stroke:#000000;stroke-width:7.5;stroke-linecap:round;stroke-linejoin:round;stroke-miterlimit:10;stroke-dasharray:none;stroke-opacity:1"
         id="path292" /><path
         d="m 1252.6,734.398 v -72"
         style="fill:none;stroke:#000000;stroke-width:7.5;stroke-linecap:round;stroke-linejoin:round;stroke-miterlimit:10;stroke-dasharray:none;stroke-opacity:1"
         id="path294" /><path
         d="m 1897,734.398 v -72"
         style="fill:none;stroke:#000000;stroke-width:7.5;stroke-linecap:round;stroke-linejoin:round;stroke-miterlimit:10;stroke-dasharray:none;stroke-opacity:1"
         id="path296" /><path
         d="m 2541.4,734.398 v -72"
         style="fill:none;stroke:#000000;stroke-width:7.5;stroke-linecap:round;stroke-linejoin:round;stroke-miterlimit:10;stroke-dasharray:none;stroke-opacity:1"
         id="path298" /><path
         d="m 3185.7,734.398 v -72"
         style="fill:none;stroke:#000000;stroke-width:7.5;stroke-linecap:round;stroke-linejoin:round;stroke-miterlimit:10;stroke-dasharray:none;stroke-opacity:1"
         id="path300" /><path
         d="m 3830.1,734.398 v -72"
         style="fill:none;stroke:#000000;stroke-width:7.5;stroke-linecap:round;stroke-linejoin:round;stroke-miterlimit:10;stroke-dasharray:none;stroke-opacity:1"
         id="path302" /><path
         d="m 4474.5,734.398 v -72"
         style="fill:none;stroke:#000000;stroke-width:7.5;stroke-linecap:round;stroke-linejoin:round;stroke-miterlimit:10;stroke-dasharray:none;stroke-opacity:1"
         id="path304" /><g
         id="g306"
         transform="scale(10)"><text
           transform="matrix(1,0,0,-1,47.3082,47.5199)"
           style="font-variant:normal;font-weight:normal;font-size:12px;font-family:Helvetica;-inkscape-font-specification:Helvetica;writing-mode:lr-tb;fill:#000000;fill-opacity:1;fill-rule:nonzero;stroke:none"
           id="text310"><tspan
             x="0 7.0079999 13.68 20.351999 64.440239 71.448242 78.120239 84.792236 128.88013 135.88812 142.56012 149.23212 203.49576 261.25391 267.92593 274.59793 325.69415 332.36615 339.03815 390.13403 396.80603 403.47803"
             y="0"
             sodipodi:role="line"
             id="tspan308">−600−400−2000200400600</tspan></text></g><path
         d="M 590.398,962.301 V 2895.4"
         style="fill:none;stroke:#000000;stroke-width:7.5;stroke-linecap:round;stroke-linejoin:round;stroke-miterlimit:10;stroke-dasharray:none;stroke-opacity:1"
         id="path312" /><path
         d="m 590.398,962.301 h -72"
         style="fill:none;stroke:#000000;stroke-width:7.5;stroke-linecap:round;stroke-linejoin:round;stroke-miterlimit:10;stroke-dasharray:none;stroke-opacity:1"
         id="path314" /><path
         d="m 590.398,1284.5 h -72"
         style="fill:none;stroke:#000000;stroke-width:7.5;stroke-linecap:round;stroke-linejoin:round;stroke-miterlimit:10;stroke-dasharray:none;stroke-opacity:1"
         id="path316" /><path
         d="m 590.398,1606.6 h -72"
         style="fill:none;stroke:#000000;stroke-width:7.5;stroke-linecap:round;stroke-linejoin:round;stroke-miterlimit:10;stroke-dasharray:none;stroke-opacity:1"
         id="path318" /><path
         d="m 590.398,1928.8 h -72"
         style="fill:none;stroke:#000000;stroke-width:7.5;stroke-linecap:round;stroke-linejoin:round;stroke-miterlimit:10;stroke-dasharray:none;stroke-opacity:1"
         id="path320" /><path
         d="m 590.398,2251 h -72"
         style="fill:none;stroke:#000000;stroke-width:7.5;stroke-linecap:round;stroke-linejoin:round;stroke-miterlimit:10;stroke-dasharray:none;stroke-opacity:1"
         id="path322" /><path
         d="m 590.398,2573.2 h -72"
         style="fill:none;stroke:#000000;stroke-width:7.5;stroke-linecap:round;stroke-linejoin:round;stroke-miterlimit:10;stroke-dasharray:none;stroke-opacity:1"
         id="path324" /><path
         d="m 590.398,2895.4 h -72"
         style="fill:none;stroke:#000000;stroke-width:7.5;stroke-linecap:round;stroke-linejoin:round;stroke-miterlimit:10;stroke-dasharray:none;stroke-opacity:1"
         id="path326" /><g
         id="g328"
         transform="scale(10)"><text
           transform="matrix(0,1,1,0,41.7602,82.7184)"
           style="font-variant:normal;font-weight:normal;font-size:12px;font-family:Helvetica;-inkscape-font-specification:Helvetica;writing-mode:lr-tb;fill:#000000;fill-opacity:1;fill-rule:nonzero;stroke:none"
           id="text332"><tspan
             x="0 7.0079999 13.68 20.351999 64.430038 71.438042 78.110039 84.782043 106.8258 132.37379 139.04581 145.7178 164.59367 171.26569 177.93768 196.81355 203.48557 210.15756"
             y="0"
             sodipodi:role="line"
             id="tspan330">−300−1000100200300</tspan></text></g><path
         d="M 590.398,734.398 H 4531.2 V 3009.6 H 590.398 V 734.398"
         style="fill:none;stroke:#000000;stroke-width:7.5;stroke-linecap:round;stroke-linejoin:round;stroke-miterlimit:10;stroke-dasharray:none;stroke-opacity:1"
         id="path334" /><g
         id="g336"><g
           id="g338"
           clip-path="url(#clipPath342)"><path
             d="m 2560.8,1872 -522.7,856.2"
             style="fill:none;stroke:#0000ff;stroke-width:15;stroke-linecap:round;stroke-linejoin:round;stroke-miterlimit:10;stroke-dasharray:none;stroke-opacity:1"
             id="path344" /><path
             d="M 2560.8,1872 2061.1,1566.9"
             style="fill:none;stroke:#0eff00;stroke-width:15;stroke-linecap:round;stroke-linejoin:round;stroke-miterlimit:10;stroke-dasharray:none;stroke-opacity:1"
             id="path346" /><path
             d="M 2541.4,734.398 V 3009.6"
             style="fill:none;stroke:#000000;stroke-width:7.5;stroke-linecap:round;stroke-linejoin:round;stroke-miterlimit:10;stroke-dasharray:none;stroke-opacity:1"
             id="path348" /><path
             d="M 590.398,1928.8 H 4531.2"
             style="fill:none;stroke:#000000;stroke-width:7.5;stroke-linecap:round;stroke-linejoin:round;stroke-miterlimit:10;stroke-dasharray:none;stroke-opacity:1"
             id="path350" /><path
             d="m 3279.5,2433.6 h 1251.7 v 576 H 3279.5 Z"
             style="fill:none;stroke:#000000;stroke-width:7.5;stroke-linecap:round;stroke-linejoin:round;stroke-miterlimit:10;stroke-dasharray:none;stroke-opacity:1"
             id="path352" /><path
             d="m 3387.5,2865.6 h 216"
             style="fill:none;stroke:#000000;stroke-width:15;stroke-linecap:round;stroke-linejoin:round;stroke-miterlimit:10;stroke-dasharray:none;stroke-opacity:1"
             id="path354" /><path
             d="m 3387.5,2721.6 h 216"
             style="fill:none;stroke:#0000ff;stroke-width:15;stroke-linecap:round;stroke-linejoin:round;stroke-miterlimit:10;stroke-dasharray:none;stroke-opacity:1"
             id="path356" /><path
             d="m 3387.5,2577.6 h 216"
             style="fill:none;stroke:#0eff00;stroke-width:15;stroke-linecap:round;stroke-linejoin:round;stroke-miterlimit:10;stroke-dasharray:none;stroke-opacity:1"
             id="path358" /><g
             id="g360"
             transform="scale(10)"><text
               transform="matrix(1,0,0,-1,371.15,282.25)"
               style="font-variant:normal;font-weight:normal;font-size:12px;font-family:Helvetica;-inkscape-font-specification:Helvetica;writing-mode:lr-tb;fill:#000000;fill-opacity:1;fill-rule:nonzero;stroke:none"
               id="text368"><tspan
                 x="0 8.6639996 15.336 18.672001 25.344 29.219931 35.891933 38.555931 41.891933 50.555931 57.227932 63.899933 67.235931 69.899933"
                 y="0"
                 sodipodi:role="line"
                 id="tspan362">Natural Config</tspan><tspan
                 x="0 8.0039997 14.676 24.672001 27.336 34.344002 44.34 51.012001"
                 y="14.4"
                 sodipodi:role="line"
                 id="tspan364">Semi−Maj</tspan><tspan
                 x="0 8.0039997 14.676 24.672001 27.336 34.344002 44.34 47.004002"
                 y="28.799999"
                 sodipodi:role="line"
                 id="tspan366">Semi−Min</tspan></text></g></g></g></g></g><g
     inkscape:groupmode="layer"
     id="layer1"
     inkscape:label="annotation layer"><path
       id="path1208"
       style="fill:none;stroke:#000000;stroke-width:1.5;stroke-linejoin:bevel;stroke-miterlimit:4;stroke-dasharray:none"
       d="M 324.54732 202.62677 A 24.033381 24.033381 0 0 1 338.80392 197.94158 A 24.033381 24.033381 0 0 1 362.83731 221.97496 L 362.83731 221.97496 A 24.033381 24.033381 0 0 1 362.82428 222.76625 " /><g
       inkscape:label=""
       transform="matrix(2.3128103,0,0,2.3128103,127.88083,28.357144)"
       id="g2090"><g
   id="g4407">
    <g
   style="fill:#000000;fill-opacity:1"
   id="g5338">
      <use
   xlink:href="#symbol9826"
   x="91.925003"
   y="81.962997"
   id="use3268"
   width="100%"
   height="100%" />
    </g>
  </g>
</g></g></svg>
